<svg viewBox="0 0 283.46 97.01" xmlns="http://www.w3.org/2000/svg"><g fill="#fff"><path d="M249.31 93.35h2.3V77.61h5.32v-2.06H244v2.06h5.32zm-7.59-4.59c0-3.48-.24-4.17-5-5.35-3.53-.88-3.53-1-3.53-3.45 0-2 .53-2.64 3.45-2.64a21.2 21.2 0 0 1 4.57.51l.18-2a20.44 20.44 0 0 0-4.81-.58c-4.41 0-5.69 1.49-5.69 4.59 0 3.69.51 4.52 4.81 5.48 3.66.83 3.69 1 3.69 3.45 0 2-.59 2.78-3.45 2.78a17.15 17.15 0 0 1-5-.77l-.37 1.87a15.29 15.29 0 0 0 5.29.93c4.89 0 5.8-1.76 5.8-4.86m-25.15-8c0-2.19 1.33-3.42 4.14-3.42s4.14 1.23 4.14 3.42v7.43c0 2.19-1.34 3.42-4.14 3.42s-4.14-1.23-4.14-3.42zm10.58-.06c0-3-1.84-5.39-6.44-5.39s-6.44 2.43-6.44 5.39v7.54c0 3 1.84 5.4 6.44 5.4s6.44-2.43 6.44-5.4zM207 93.35h3.15v-17.8h-2.19v15.24l-7.75-15.24H197v17.8h2.19V78.2zm-15.31-22.5a21 21 0 0 0-2.65 1.5 21 21 0 0 0-2.65-1.5l-.69 1.26a29.12 29.12 0 0 1 3.3 2.27 29.12 29.12 0 0 1 3.34-2.27zm-6.53 9.81c0-2.49 1-3.29 3.88-3.29a27.44 27.44 0 0 1 4.17.37l.24-2a22.36 22.36 0 0 0-4.49-.48c-4.36 0-6.1 1.87-6.1 5.24v7.85c0 3.37 1.74 5.24 6.1 5.24a23.12 23.12 0 0 0 4.49-.48l-.24-2a27.55 27.55 0 0 1-4.17.38c-2.91 0-3.88-.81-3.88-3.29zM169 93.35h10.5v-2h-8.2v-6h7.59V83.2h-7.59v-5.59h8.17v-2.06H169zm-11-17.8h-2.3v17.8h10v-2H158zm-17 5.19c0-2.19 1.33-3.42 4.14-3.42s4.14 1.23 4.14 3.42v7.43c0 2.19-1.33 3.42-4.14 3.42S141 90.36 141 88.17zm10.58-.06c0-3-1.84-5.39-6.44-5.39s-6.44 2.43-6.44 5.39v7.54c0 3 1.84 5.4 6.44 5.4s6.44-2.43 6.44-5.4zM133.44 80v2.62c0 1.74-.75 2.36-2.94 2.36h-4.06v-7.37h4.06c2.19 0 2.94.59 2.94 2.35m-9.3 13.39h2.3V87h4.14c3.82 0 5.16-1.65 5.16-4.41v-2.65c0-2.73-1.34-4.39-5.16-4.39h-6.44zm-4-4.59c0-3.48-.24-4.17-5-5.35-3.53-.88-3.53-1-3.53-3.45 0-2 .54-2.64 3.45-2.64a21.2 21.2 0 0 1 4.57.51l.19-2a20.5 20.5 0 0 0-4.81-.58c-4.41 0-5.7 1.49-5.7 4.59 0 3.69.51 4.52 4.81 5.48 3.67.83 3.69 1 3.69 3.45 0 2-.59 2.78-3.45 2.78a17.15 17.15 0 0 1-5-.77l-.36 1.91a15.29 15.29 0 0 0 5.29.93c4.89 0 5.8-1.76 5.8-4.86m155.73-46.48a22.91 22.91 0 0 0 3.45-2.11l-1-1.56a31.57 31.57 0 0 1-3.34 2.2zM279.08 55h-6.36l3.18-9.86zm-1.63-11.52h-3.1l-6 17.8h2.32l1.44-4.28h7.56l1.47 4.28h2.32zm-11.6 0h-2.7l-6.41 8.74 6.89 9.06h2.76l-7.06-9.06zm-9.67 0h-2.3v17.8h2.3zM242 48.58c0-2.48 1-3.28 3.88-3.28a27.44 27.44 0 0 1 4.17.37l.24-2a23.12 23.12 0 0 0-4.49-.48c-4.36 0-6.1 1.87-6.1 5.24v7.86c0 3.37 1.74 5.24 6.1 5.24a23.12 23.12 0 0 0 4.49-.48l-.24-2a27.44 27.44 0 0 1-4.17.37c-2.91 0-3.88-.8-3.88-3.28zm-6.57-5.1h-2.3v17.8h2.3zm-12.86 17.8h2.3V45.54h5.32v-2.06h-12.96v2.06h5.32zm-7.57-4.6c0-3.47-.24-4.17-5-5.34-3.53-.88-3.53-1-3.53-3.45 0-2.06.54-2.65 3.45-2.65a21.84 21.84 0 0 1 4.57.51l.19-2a20.5 20.5 0 0 0-4.81-.59c-4.41 0-5.7 1.5-5.7 4.6 0 3.69.51 4.52 4.81 5.48 3.67.83 3.69 1 3.69 3.45 0 2-.59 2.78-3.44 2.78a16.85 16.85 0 0 1-5-.78l-.37 1.87a15.07 15.07 0 0 0 5.29.94c4.89 0 5.8-1.77 5.8-4.87m-15.1-13.2h-2.3v17.8h2.3zm-10.13 17.8h3.15V43.48h-2.19v15.23l-7.75-15.23h-3.15v17.8H182V46.13zm-17.17-13.34v2.57c0 1.73-.75 2.35-2.94 2.35h-4.41v-7.27h4.41c2.19 0 2.94.59 2.94 2.35M174 61.28h2.64L172 54.57c2.06-.59 2.83-2 2.83-4.14v-2.57c0-2.72-1.33-4.38-5.15-4.38h-6.78v17.8h2.3v-6.44h4.35zm-25.53 0H159v-2.06h-8.21v-6h7.59v-2.1h-7.59v-5.58h8.18v-2.06h-10.51zm-10.42 0h2.3V45.54h5.32v-2.06h-12.95v2.06H138zm-11.28 0h3.15v-17.8h-2.19v15.23L120 43.48h-3.15v17.8H119V46.13zm-14.62-17.8h-2.3v17.8h2.3zm62.16-33.28a21.38 21.38 0 0 0 3.45-2.11l-1-1.55a31 31 0 0 1-3.34 2.19zm3.26 12.73h-6.36l3.18-9.87zm-1.63-11.52h-3.1l-6 17.8h2.33l1.44-4.28h7.57l1.47 4.28H182zm-11.6 0h-2.7l-6.42 8.74 6.9 9.06h2.75l-7.05-9.06zm-9.68 0h-2.3v17.8h2.3zm-6.3 13.2c0-3.48-.24-4.17-5-5.35-3.52-.88-3.52-1-3.52-3.44 0-2.06.53-2.65 3.45-2.65a21.84 21.84 0 0 1 4.57.51l.18-1.95a19.93 19.93 0 0 0-4.81-.59c-4.41 0-5.69 1.5-5.69 4.59 0 3.69.51 4.52 4.81 5.48 3.66.83 3.69 1.05 3.69 3.45 0 2-.59 2.78-3.45 2.78a17.15 17.15 0 0 1-5-.77l-.38 1.87a15.39 15.39 0 0 0 5.3.93c4.89 0 5.8-1.76 5.8-4.86m-24.86 4.6H134v-2.06h-8.2v-6h7.59v-2.1h-7.59v-5.59h8.2v-2.05h-10.5zM118.13 6.7a22.32 22.32 0 0 0-2.65 1.5 22.32 22.32 0 0 0-2.65-1.5l-.69 1.3a30.47 30.47 0 0 1 3.34 2.27A30.47 30.47 0 0 1 118.82 8zm-6.52 9.81c0-2.49 1-3.29 3.87-3.29a27.43 27.43 0 0 1 4.17.38l.24-2a22.36 22.36 0 0 0-4.49-.48c-4.36 0-6.09 1.87-6.09 5.24v7.85c0 3.37 1.73 5.24 6.09 5.24a22.36 22.36 0 0 0 4.49-.48l-.24-2a26.21 26.21 0 0 1-4.17.38c-2.91 0-3.87-.8-3.87-3.29zM58.07 44.84v12.43c8.38 0 16.1 3.58 16.1 10.39 0 8.12-10 12.77-16.1 14.24v13.33C68 92.34 86.79 83.64 86.79 66.85c0-20-23.28-22.01-28.72-22.01zM45.8 4.54a46.19 46.19 0 0 0-6.38.46v91.57a46.47 46.47 0 0 0 12.76 0V5a46.4 46.4 0 0 0-6.38-.46zM12.74 47.7c3.67 4.9 9.92 9 20.79 9V44.29c-4.25 0-8.52-1.44-11.06-4.48-2.95-3.51-3-9.54 1.57-14.36a33.67 33.67 0 0 0-11.3 22.25zM66.46 9.62L73.33.06H61.16l-2.93 6.27v13.33a33.86 33.86 0 0 1 11.93 8.39l10.44-7.19A46.72 46.72 0 0 0 66.46 9.62z"/><path d="M24 25.45a33.66 33.66 0 0 1 9.49-5.87V6.27L30.6 0H18.43l6 10a46.3 46.3 0 0 0 9.07 85.33V82a33.77 33.77 0 0 1-20.91-31.22c0-1 .06-2.06.15-3.08A33.67 33.67 0 0 1 24 25.45z"/></g></svg>