<?xml version="1.0" encoding="utf-8"?>
<!-- Generator: Adobe Illustrator 27.0.0, SVG Export Plug-In . SVG Version: 6.00 Build 0)  -->
<svg version="1.1" id="Layer_1" xmlns="http://www.w3.org/2000/svg" xmlns:xlink="http://www.w3.org/1999/xlink" x="0px" y="0px"
	 viewBox="0 0 178.12 49.56" style="enable-background:new 0 0 178.12 49.56;" xml:space="preserve">
<style type="text/css">
	.st0{fill:#FFFFFF;}
</style>
<g>
	<g>
		<g>
			<path class="st0" d="M75.19,14.61c0.55-3.93-1.67-6.71-7.23-6.71H57.95l-2.79,19.83h5.3l0.86-6.09h3.27l3.19,6.09h6.12
				l-3.77-6.94C73.04,19.61,74.77,17.6,75.19,14.61z M69.8,15.04c-0.22,1.57-1.51,2.5-3.45,2.5h-4.46l0.72-5.09H67
				C68.7,12.45,70.07,13.12,69.8,15.04z"/>
			<polygon class="st0" points="91.87,7.9 85.39,20.88 82.55,7.9 76.61,7.9 81.84,27.72 86.83,27.72 97.68,7.9 			"/>
			<polygon class="st0" points="97.02,27.72 102.35,27.72 105.13,7.9 99.8,7.9 			"/>
			<path class="st0" d="M25.58,11.6c1.92,0,3.63,0.62,5.29,1.78l3.16-3.51c-1.87-1.49-4.72-2.54-7.84-2.54
				c-5.71,0-8.76,2.85-9.24,6.19c-0.44,3.12,0.87,4.79,6.48,6.21c3.28,0.83,4.21,1.27,4.04,2.4c-0.15,1-1.25,1.76-3.62,1.76
				c-2.52,0-4.25-0.64-6.21-2.22l-3.37,3.26c2.24,2.01,5.23,3.23,9.02,3.23c7.45,0,9.53-4.19,9.81-6.16
				c0.58-4.06-1.51-5.21-6.83-6.49c-3.76-0.91-4.06-1.39-3.92-2.31C22.51,12.09,23.57,11.6,25.58,11.6z"/>
			<path class="st0" d="M160.42,22.89c-1.11,4.61-5.17,7.63-9.64,7.63c-2.92,0-5.01-1.47-6.26-3.75l-3.25-5.98
				c2.89-1.16,4.64-3.17,5.07-6.18c0.55-3.93-1.67-6.71-7.23-6.71H129.1l-2.79,19.83h5.3l0.86-6.09h3.27l3.23,6.16
				c3,5.71,7,7.46,11.82,7.46c7.23,0,13.58-4.84,14.82-12.36H160.42z M140.95,15.04c-0.22,1.57-1.51,2.5-3.45,2.5h-4.46l0.72-5.09
				h4.39C139.84,12.45,141.22,13.12,140.95,15.04z"/>
			<polygon class="st0" points="35.4,27.72 51.28,27.72 51.89,23.39 41.07,23.39 41.6,19.67 51.28,19.67 51.83,15.81 42.15,15.81 
				42.65,12.24 53.33,12.24 53.95,7.9 38.21,7.9 			"/>
			<polygon class="st0" points="106.68,27.72 122.56,27.72 123.17,23.39 112.35,23.39 112.88,19.67 122.56,19.67 123.11,15.81 
				113.43,15.81 113.93,12.24 124.61,12.24 125.23,7.9 109.49,7.9 			"/>
		</g>
		<g>
			<g>
				<path class="st0" d="M13.93,35.41c-1.37,0-2.09,0.68-2.54,1.42c-0.18-0.82-0.76-1.42-1.93-1.42c-1.28,0-1.9,0.68-2.33,1.34
					c0.06-0.33,0.11-0.99,0.12-1.14H6.03c-0.07,0.63-0.16,1.31-0.25,1.98l-0.72,5.07H6.3l0.52-3.62C7,37.69,7.68,36.5,9,36.5
					c1.28,0,1.34,1.07,1.22,1.9l-0.61,4.26h1.24l0.54-3.75c0.22-1.51,0.97-2.41,2.13-2.41c1.31,0,1.38,1.07,1.26,1.91l-0.6,4.25
					h1.23l0.62-4.36C16.32,36.28,15.35,35.41,13.93,35.41z"/>
				<path class="st0" d="M20.97,35.41c-2.59,0-3.92,2.02-3.78,4.21c0.12,1.85,1.39,3.23,3.46,3.23c2.77,0,3.92-2.09,3.78-4.17
					C24.31,36.95,23.12,35.41,20.97,35.41z M20.69,41.81c-1.26,0-2.14-0.89-2.24-2.26c-0.11-1.62,0.8-3.11,2.44-3.11
					c1.42,0,2.15,1,2.24,2.26C23.24,40.22,22.54,41.81,20.69,41.81z"/>
				<path class="st0" d="M27.9,41.46h-0.01c-0.2-0.75-0.75-2.73-1.63-5.85h-1.27l2.07,7.05h1.35l4.06-7.05H31.1
					C28.95,39.41,28.21,40.72,27.9,41.46z"/>
				<path class="st0" d="M36.07,35.41c-2.64,0-3.92,2.15-3.77,4.26c0.13,1.89,1.28,3.18,3.3,3.18c2.06,0,2.94-0.99,3.39-2.16h-1.3
					c-0.43,0.78-1,1.13-2.05,1.13c-1.21,0-2.01-0.74-2.1-2.12c-0.01-0.11,0-0.22,0-0.29h5.73c0.07-0.39,0.08-0.68,0.06-1.03
					C39.21,36.78,38.21,35.41,36.07,35.41z M38.1,38.49h-4.45c0.23-1.3,1.07-2.09,2.37-2.09c1.42,0,2.01,0.88,2.07,1.84
					C38.11,38.37,38.1,38.48,38.1,38.49z"/>
				<path class="st0" d="M46.55,36.71c-0.2-0.49-0.96-1.3-2.57-1.3c-2.42,0-3.84,2.06-3.69,4.28c0.12,1.87,1.23,3.16,3.1,3.16
					c1.38,0,2.02-0.49,2.47-1.2c-0.07,0.43-0.1,0.79-0.11,1h1.2c0.08-0.67,0.17-1.34,0.27-2.01l1.21-8.47h-1.24L46.55,36.71z
					 M46.23,39.33c-0.19,1.37-0.95,2.45-2.54,2.45c-1.28,0-2.02-0.88-2.11-2.19c-0.11-1.63,0.81-3.12,2.48-3.12
					C45.71,36.47,46.48,37.43,46.23,39.33z"/>
				<path class="st0" d="M60.9,38.41c-0.13-2.02-1.51-3-2.95-3c-1.48,0-2.15,0.64-2.63,1.32l0.65-4.56h-1.24l-1.21,8.57
					c-0.13,0.89-0.24,1.56-0.3,1.91h1.21c0.05-0.22,0.12-0.67,0.21-1.21c0.32,0.73,1.07,1.41,2.51,1.41
					C59.82,42.86,61.06,40.7,60.9,38.41z M57.07,41.78c-1.57,0-2.31-1.14-2.1-2.7c0.19-1.46,1.1-2.59,2.63-2.59
					c1.32,0,1.93,0.95,2,2.05C59.71,40.24,58.85,41.78,57.07,41.78z"/>
				<path class="st0" d="M64.59,41.78h-0.03c-0.16-0.7-0.77-2.87-1.74-6.17h-1.28l2.27,7.48c-0.71,1.28-1.17,1.72-2.07,1.72
					c-0.37,0-0.68-0.04-0.89-0.08l-0.17,1.1c0.24,0.07,0.8,0.14,1.09,0.14c1.63,0,2.2-0.56,3.52-3.14L69,35.61h-1.35
					C65.96,38.94,64.95,41.09,64.59,41.78z"/>
				<path class="st0" d="M76.35,41.78h-0.03c-0.16-0.7-0.77-2.87-1.74-6.17H73.3l2.27,7.48c-0.71,1.28-1.17,1.72-2.07,1.72
					c-0.37,0-0.68-0.04-0.89-0.08l-0.17,1.1c0.24,0.07,0.8,0.14,1.09,0.14c1.63,0,2.2-0.56,3.52-3.14l3.71-7.22H79.4
					C77.72,38.94,76.7,41.09,76.35,41.78z"/>
				<path class="st0" d="M84.45,35.41c-2.59,0-3.92,2.02-3.78,4.21c0.12,1.85,1.39,3.23,3.46,3.23c2.77,0,3.92-2.09,3.78-4.17
					C87.8,36.95,86.61,35.41,84.45,35.41z M84.18,41.81c-1.26,0-2.14-0.89-2.24-2.26c-0.11-1.62,0.8-3.11,2.44-3.11
					c1.42,0,2.15,1,2.24,2.26C86.72,40.22,86.03,41.81,84.18,41.81z"/>
				<path class="st0" d="M94.67,35.61l-0.43,3.01c-0.32,2.08-1.11,3.16-2.62,3.16c-1.31,0-1.46-1.05-1.3-2.15l0.57-4.03h-1.24
					l-0.62,4.29c-0.29,2.03,0.72,2.95,2.24,2.95c1.57,0,2.11-0.65,2.56-1.41c-0.07,0.43-0.11,1-0.11,1.21h1.23
					c0.06-0.59,0.15-1.25,0.25-1.9l0.73-5.16H94.67z"/>
			</g>
			<polygon class="st0" points="163.01,3.85 164.57,7.42 168.06,5.69 166.96,9.42 170.75,10.34 167.5,12.5 169.82,15.63 
				165.94,15.2 165.7,19.09 163.01,16.27 160.32,19.09 160.08,15.2 156.21,15.63 158.52,12.5 155.27,10.34 159.06,9.42 157.96,5.69 
				161.45,7.42 			"/>
		</g>
	</g>
</g>
</svg>
