<svg id="Vrstva_1" data-name="Vrstva 1" xmlns="http://www.w3.org/2000/svg" viewBox="0 0 147.13 50.11"><defs><clipPath id="clip-path" transform="translate(-17.4 -17.4)"><path fill="none" d="M0 0h181.93v84.91H0z"/></clipPath><style>.cls-2{clip-path:url(#clip-path)}.cls-3{fill:#121627}.cls-4{fill:#32b298}.cls-6{fill:#bbbbc0}</style></defs><g class="cls-2"><path class="cls-3" d="M79.76 63.24c0-1.79-.13-2.15-2.58-2.76-1.84-.48-1.84-.48-1.84-1.78 0-1.06.28-1.36 1.79-1.36a11.12 11.12 0 012.38.26l.09-1a10.68 10.68 0 00-2.49-.3c-2.29 0-3 .77-3 2.37 0 1.91.26 2.33 2.5 2.83 1.9.43 1.91.54 1.91 1.78 0 1-.3 1.44-1.79 1.44a8.94 8.94 0 01-2.58-.4l-.19 1a7.87 7.87 0 002.74.49c2.54 0 3-.92 3-2.52m2.08 2.38H83v-3.34h2.15c2 0 2.68-.85 2.68-2.28v-1.36c0-1.41-.7-2.27-2.68-2.27h-3.31zm4.82-6.92v1.35c0 .9-.38 1.22-1.52 1.22H83v-3.83h2.11c1.14 0 1.52.3 1.52 1.21m9.38.37c0-1.53-1-2.78-3.34-2.78s-3.34 1.25-3.34 2.78V63c0 1.53 1 2.79 3.34 2.79S96 64.5 96 63zm-5.49 0c0-1.13.69-1.76 2.15-1.76s2.15.63 2.15 1.76v3.84c0 1.13-.69 1.77-2.15 1.77s-2.15-.64-2.15-1.77zm8.84-2.68h-1.2v9.2h5.2v-1.04h-4zm5.74 9.2h5.45v-1.04h-4.26v-3.12h3.94v-1.06h-3.94v-2.88h4.25v-1.07h-5.44zm8.36-6.56c0-1.28.5-1.7 2-1.7a13.66 13.66 0 012.17.2l.12-1a12 12 0 00-2.33-.24c-2.26 0-3.16 1-3.16 2.7v4.06c0 1.74.9 2.71 3.16 2.71a12 12 0 002.33-.25l-.12-1a14.83 14.83 0 01-2.17.19c-1.51 0-2-.42-2-1.7zm3.42-5.03a12.1 12.1 0 00-1.38.78 11.15 11.15 0 00-1.37-.78l-.36.65a14.8 14.8 0 011.73 1.18 15.76 15.76 0 011.74-1.18zm8 11.63h1.63v-9.2h-1.13v7.87l-4-7.87h-1.63v9.2h1.14v-7.84zm10.47-6.55c0-1.53-1-2.78-3.34-2.78s-3.34 1.25-3.34 2.78V63c0 1.53.95 2.79 3.34 2.79s3.29-1.29 3.29-2.79zm-5.49 0c0-1.13.69-1.76 2.15-1.76s2.15.63 2.15 1.76v3.84c0 1.13-.7 1.77-2.15 1.77s-2.15-.64-2.15-1.77zm13.05 4.14c0-1.79-.12-2.15-2.58-2.76-1.83-.45-1.83-.51-1.83-1.78 0-1.06.28-1.36 1.79-1.36a11 11 0 012.37.26l.1-1a10.7 10.7 0 00-2.5-.3c-2.29 0-3 .77-3 2.37 0 1.91.26 2.33 2.5 2.83 1.9.43 1.91.54 1.91 1.78 0 1-.31 1.44-1.79 1.44a8.89 8.89 0 01-2.58-.4l-.19 1a7.83 7.83 0 002.74.49c2.54 0 3-.92 3-2.52m3.94 2.38H148v-8.16h2.76v-1.07H144v1.07h2.76z" transform="translate(-17.4 -17.4)"/><path class="cls-4" d="M75.61 39.86h-1.2v9.19h1.2zm9.22 0h-1.14v7.87l-4-7.87H78v9.19h1.13v-7.82l4 7.82h1.63zm8.17 0h-6.71v1.06h2.76v8.13h1.19v-8.13H93zm6.9 0h-5.44v9.19h5.45V48h-4.26v-3.13h3.94v-1.06h-3.94v-2.89h4.25zm3.24 4.82v-3.76h2.29c1.14 0 1.53.31 1.53 1.22v1.32c0 .9-.39 1.22-1.53 1.22zm2.34-4.82H102v9.19h1.19v-3.32h2.27l2.3 3.32h1.37l-2.4-3.46a2 2 0 001.47-2.14v-1.33c0-1.41-.69-2.26-2.67-2.26m12 0h-1.14v7.87l-4-7.87h-1.64v9.19h1.14v-7.82l4 7.82h1.64zm3.62 0h-1.2v9.19h1.2zm15.73 0h-6.71v1.06h2.76v8.13h1.19v-8.13h2.76zm2.72 0h-1.2v9.19h1.19zm10.78 0h-1.2v9.19h1.2zm5 0H154l-3.33 4.51 3.58 4.68h1.43L152 44.37zm3.57 6l1.65-5.1 1.65 5.1zm2.45-6h-1.6l-3.12 9.19h1.21l.75-2.21h3.92l.76 2.21h1.21zm-35.08-.14c-2.29 0-3 .77-3 2.37 0 1.91.26 2.34 2.5 2.83 1.9.43 1.91.54 1.91 1.79 0 1-.3 1.43-1.79 1.43a8.94 8.94 0 01-2.58-.4l-.19 1a7.88 7.88 0 002.75.48c2.53 0 3-.91 3-2.51 0-1.8-.13-2.16-2.58-2.76-1.84-.46-1.84-.51-1.84-1.78 0-1.07.28-1.37 1.79-1.37a11.8 11.8 0 012.38.26l.09-1a10.68 10.68 0 00-2.49-.3m18.64 0c-2.26 0-3.16 1-3.16 2.71v4.06c0 1.73.9 2.7 3.16 2.7a12 12 0 002.33-.25l-.12-1a13.57 13.57 0 01-2.17.19c-1.51 0-2-.41-2-1.69V42.5c0-1.29.5-1.7 2-1.7a14.83 14.83 0 012.17.19l.12-1a12 12 0 00-2.33-.25m16.86-2.37a17.3 17.3 0 01-1.74 1.13l.47.76a11.55 11.55 0 001.79-1.09z" transform="translate(-17.4 -17.4)"/><path class="cls-3" d="M86.94 23.29H81.5v9.2H87v-1.07h-4.3V28.3h3.94v-1.06H82.7v-2.88h4.24zm10.74 0h-1.19v9.2h1.19zm5 0h-1.4L98 27.81l3.58 4.68H103l-3.66-4.68zm3.57 5.95l1.65-5.09 1.65 5.09zm2.45-5.95h-1.61l-3.09 9.2h1.21l.75-2.21h3.92l.77 2.21h1.2zm-31.4-.14c-2.26 0-3.16 1-3.16 2.71v4.06c0 1.74.9 2.7 3.16 2.7a12.12 12.12 0 002.33-.24l-.12-1a13.66 13.66 0 01-2.17.2c-1.51 0-2-.42-2-1.7v-3.95c0-1.28.5-1.7 2-1.7a14.83 14.83 0 012.17.19l.12-1a12.13 12.13 0 00-2.33-.25m14.45 0c-2.28 0-3 .78-3 2.38 0 1.9.26 2.33 2.5 2.83 1.9.43 1.91.54 1.91 1.78 0 1.05-.3 1.44-1.79 1.44a8.63 8.63 0 01-2.58-.41l-.19 1a7.86 7.86 0 002.74.48c2.54 0 3-.91 3-2.51 0-1.79-.13-2.15-2.59-2.76C90 26.9 90 26.84 90 25.57c0-1.06.28-1.37 1.79-1.37a11.13 11.13 0 012.38.27l.09-1a10.19 10.19 0 00-2.5-.31m-13-2.29a12.86 12.86 0 00-1.37.78 12.86 12.86 0 00-1.39-.79l-.36.65a16.69 16.69 0 011.73 1.18 15.76 15.76 0 011.74-1.18zm30.43-.08a15.72 15.72 0 01-1.74 1.13l.48.76a11.16 11.16 0 001.78-1.09z" transform="translate(-17.4 -17.4)"/><path class="cls-6" d="M47.61 40.56h-.07V47c4.35 0 8.36 1.85 8.36 5.37 0 4.19-5.18 6.59-8.36 7.35v6.89c5.15-1.5 14.9-6 14.9-14.66 0-10.25-11.9-11.35-14.84-11.37" transform="translate(-17.4 -17.4)"/><path class="cls-4" d="M41.17 19.75a25.8 25.8 0 00-3.31.22v47.31a25.43 25.43 0 003.17.23h.29a25.57 25.57 0 003.17-.23V20a26 26 0 00-3.32-.22" transform="translate(-17.4 -17.4)"/><path class="cls-6" d="M29.88 30.55A17.38 17.38 0 0024 42c1.91 2.53 5.15 4.66 10.79 4.66v-6.38A7.45 7.45 0 0129.06 38c-1.52-1.81-1.56-4.92.82-7.41" transform="translate(-17.4 -17.4)"/></g><g class="cls-2"><path class="cls-3" d="M55.46 17.43h-6.32l-1.51 3.24v6.89a17.51 17.51 0 016.19 4.33l5.41-3.71a24.26 24.26 0 00-7.33-5.81z" transform="translate(-17.4 -17.4)"/><path d="M17.4 43.54zM33.29 17.4z" transform="translate(-17.4 -17.4)" fill="#fff"/><path class="cls-3" d="M33.29 17.4H27l3.13 5.14a23.88 23.88 0 00-12.7 21v.18A24 24 0 0034.8 66.61v-6.87a17.46 17.46 0 01-10.86-16.11c0-.54 0-1.07.07-1.59A17.4 17.4 0 0134.8 27.52v-6.88z" transform="translate(-17.4 -17.4)"/></g></svg>